<svg viewBox="0 0 15 15" width="15" height="15" xmlns="http://www.w3.org/2000/svg">
  <path d="m3.342808,8.966023l-1.405804,0a1.405804,1.405804 0 0 1 -1.405804,-1.405804l0,-5.623215c0,-0.773192 0.632612,-1.405804 1.405804,-1.405804l8.434823,0a1.405804,1.405804 0 0 1 1.405804,1.405804l0,1.405804l1.405804,0a1.405804,1.405804 0 0 1 1.405804,1.405804l0,9.137725a0.702902,0.702902 0 0 1 -1.194933,0.492031l-2.614795,-2.600737l-6.030898,0a1.405804,1.405804 0 0 1 -1.405804,-1.405804l0,-1.405804zm0,-1.405804l0,-2.811608c0,-0.773192 0.632612,-1.405804 1.405804,-1.405804l5.623215,0l0,-1.405804l-8.434823,0l0,5.623215l1.405804,0zm9.840627,-2.811608l-8.434823,0l0,5.623215l6.326117,0a0.702902,0.702902 0 0 1 0.492031,0.210871l1.616674,1.609645l0,-7.443731z" class="heroicon-ui"/>
</svg>